<svg width="132" height="21" viewBox="0 0 132 21" fill="none" xmlns="http://www.w3.org/2000/svg">
<path d="M8.11843 7.3184C7.22416 8.07827 6.89644 9.46409 7.66862 10.5758C8.39122 11.6162 9.30144 12.5262 10.3416 13.2485C11.4534 14.0205 12.8391 13.6927 13.5989 12.7984L13.6074 12.8023C14.5778 13.2519 15.6086 13.56 16.6666 13.717V15.9168L16.6657 15.9168L16.6634 15.9168C10.0179 15.9262 4.99288 10.8428 4.99999 4.25315V4.25016H7.19945L7.1996 4.25114C7.35664 5.30904 7.66465 6.33894 8.11426 7.30939L8.11843 7.3184ZM16.6657 17.5835H17.5C17.9602 17.5835 18.3333 17.2104 18.3333 16.7501V12.9983C18.3333 12.5853 18.0308 12.2346 17.6223 12.174L16.9105 12.0683C16.0102 11.9347 15.1338 11.6726 14.3079 11.29L13.6805 10.9994C13.317 10.831 12.885 10.9452 12.6521 11.2712L12.3681 11.6689C12.1192 12.0174 11.644 12.1238 11.2922 11.8795C10.4153 11.2706 9.64671 10.5022 9.0375 9.62507C8.79316 9.27328 8.89961 8.79797 9.24817 8.54905L9.64562 8.26522C9.97172 8.03234 10.0859 7.60034 9.91745 7.23675L9.62651 6.60877C9.24393 5.78299 8.98183 4.90662 8.8482 4.0064L8.74251 3.29446C8.68187 2.88596 8.33119 2.5835 7.91821 2.5835H4.16665C3.70642 2.5835 3.33332 2.95659 3.33332 3.41683V4.25136C3.32522 11.7567 9.09184 17.5942 16.6657 17.5835Z" fill="#FF6916"/>
<path d="M36.1685 16.3051C35.2329 16.3051 34.4299 16.0683 33.7594 15.5949C33.0928 15.1176 32.5795 14.4301 32.2197 13.5324C31.8636 12.6308 31.6856 11.5456 31.6856 10.2767C31.6894 9.00774 31.8693 7.92819 32.2254 7.03804C32.5852 6.1441 33.0985 5.46228 33.7651 4.99259C34.4356 4.52289 35.2367 4.28804 36.1685 4.28804C37.1004 4.28804 37.9015 4.52289 38.5719 4.99259C39.2424 5.46228 39.7557 6.1441 40.1117 7.03804C40.4716 7.93198 40.6515 9.01153 40.6515 10.2767C40.6515 11.5494 40.4716 12.6365 40.1117 13.538C39.7557 14.4358 39.2424 15.1214 38.5719 15.5949C37.9053 16.0683 37.1041 16.3051 36.1685 16.3051ZM36.1685 14.5267C36.8958 14.5267 37.4697 14.1687 37.8901 13.4528C38.3144 12.7331 38.5265 11.6744 38.5265 10.2767C38.5265 9.35244 38.4299 8.57592 38.2367 7.94713C38.0435 7.31834 37.7708 6.84486 37.4185 6.52668C37.0663 6.20471 36.6496 6.04372 36.1685 6.04372C35.4451 6.04372 34.8731 6.40357 34.4526 7.12327C34.0322 7.83918 33.8201 8.89031 33.8163 10.2767C33.8125 11.2047 33.9053 11.985 34.0947 12.6176C34.2879 13.2502 34.5606 13.7274 34.9129 14.0494C35.2651 14.3676 35.6837 14.5267 36.1685 14.5267ZM46.5791 4.28804C47.1359 4.29183 47.6775 4.39031 48.2041 4.5835C48.7344 4.77289 49.2116 5.0835 49.6359 5.51531C50.0601 5.94334 50.3972 6.51721 50.6472 7.23691C50.8972 7.9566 51.0222 8.84675 51.0222 9.90736C51.026 10.9074 50.92 11.8013 50.7041 12.5892C50.4919 13.3733 50.187 14.0361 49.7893 14.5778C49.3916 15.1195 48.9124 15.5324 48.3518 15.8165C47.7912 16.1005 47.1605 16.2426 46.4597 16.2426C45.7249 16.2426 45.0734 16.0986 44.5052 15.8108C43.9408 15.5229 43.4844 15.129 43.1359 14.629C42.7874 14.129 42.5734 13.557 42.4938 12.913H44.5677C44.6737 13.3752 44.8897 13.7426 45.2154 14.0153C45.545 14.2843 45.9597 14.4187 46.4597 14.4187C47.2666 14.4187 47.8878 14.0683 48.3234 13.3676C48.759 12.6668 48.9768 11.6933 48.9768 10.4471H48.8972C48.7116 10.7805 48.4711 11.0683 48.1756 11.3108C47.8802 11.5494 47.545 11.7331 47.17 11.8619C46.7987 11.9907 46.4048 12.0551 45.9881 12.0551C45.3063 12.0551 44.6927 11.8922 44.1472 11.5665C43.6056 11.2407 43.1756 10.7937 42.8575 10.2255C42.5431 9.65736 42.384 9.00774 42.3802 8.27668C42.3802 7.5191 42.5544 6.83918 42.9029 6.23691C43.2552 5.63084 43.7457 5.15357 44.3745 4.80509C45.0033 4.45281 45.7381 4.28047 46.5791 4.28804ZM46.5847 5.99259C46.1756 5.99259 45.8063 6.09297 45.4768 6.29372C45.151 6.49069 44.8934 6.75963 44.7041 7.10054C44.5184 7.43766 44.4256 7.81456 44.4256 8.23122C44.4294 8.6441 44.5222 9.0191 44.7041 9.35622C44.8897 9.69334 45.1416 9.96039 45.4597 10.1574C45.7817 10.3543 46.1491 10.4528 46.562 10.4528C46.8688 10.4528 47.1548 10.3941 47.42 10.2767C47.6851 10.1593 47.9162 9.99637 48.1131 9.78804C48.3139 9.57592 48.4692 9.33539 48.5791 9.06645C48.6927 8.79751 48.7476 8.51342 48.7438 8.21418C48.7438 7.81645 48.6491 7.44903 48.4597 7.11191C48.2741 6.77478 48.0184 6.50395 47.6927 6.29941C47.3707 6.09486 47.0014 5.99259 46.5847 5.99259ZM57.6472 4.44713V16.0835H55.5393V6.49827H55.4711L52.7495 8.23691V6.30509L55.6416 4.44713H57.6472ZM69.3035 4.44713V16.0835H67.1955V6.49827H67.1273L64.4058 8.23691V6.30509L67.2978 4.44713H69.3035ZM72.6842 16.0835L77.633 6.28804V6.2085H71.8887V4.44713H79.8148V6.24827L74.8717 16.0835H72.6842ZM86.3816 4.44713V16.0835H84.2737V6.49827H84.2055L81.4839 8.23691V6.30509L84.3759 4.44713H86.3816ZM89.7623 16.0835L94.7112 6.28804V6.2085H88.9668V4.44713H96.893V6.24827L91.9498 16.0835H89.7623ZM102.696 16.0835V14.5608L106.735 10.6005C107.122 10.2104 107.444 9.8638 107.701 9.56077C107.959 9.25774 108.152 8.96418 108.281 8.68009C108.41 8.396 108.474 8.09297 108.474 7.771C108.474 7.40357 108.391 7.08918 108.224 6.82781C108.057 6.56266 107.828 6.35812 107.536 6.21418C107.245 6.07024 106.913 5.99827 106.542 5.99827C106.16 5.99827 105.824 6.07781 105.536 6.23691C105.249 6.39221 105.025 6.6138 104.866 6.90168C104.711 7.18956 104.633 7.53236 104.633 7.93009H102.627C102.627 7.19145 102.796 6.5494 103.133 6.00395C103.47 5.4585 103.934 5.03615 104.525 4.73691C105.12 4.43766 105.802 4.28804 106.571 4.28804C107.351 4.28804 108.036 4.43387 108.627 4.72554C109.218 5.01721 109.677 5.41683 110.002 5.92441C110.332 6.43198 110.497 7.01153 110.497 7.66304C110.497 8.09865 110.413 8.52668 110.247 8.94713C110.08 9.36759 109.786 9.8335 109.366 10.3449C108.949 10.8562 108.364 11.4755 107.61 12.2028L105.605 14.2426V14.3221H110.673V16.0835H102.696ZM112.633 16.0835V14.5608L116.673 10.6005C117.059 10.2104 117.381 9.8638 117.639 9.56077C117.896 9.25774 118.089 8.96418 118.218 8.68009C118.347 8.396 118.411 8.09297 118.411 7.771C118.411 7.40357 118.328 7.08918 118.161 6.82781C117.995 6.56266 117.766 6.35812 117.474 6.21418C117.182 6.07024 116.851 5.99827 116.48 5.99827C116.097 5.99827 115.762 6.07781 115.474 6.23691C115.186 6.39221 114.963 6.6138 114.803 6.90168C114.648 7.18956 114.571 7.53236 114.571 7.93009H112.565C112.565 7.19145 112.733 6.5494 113.071 6.00395C113.408 5.4585 113.872 5.03615 114.463 4.73691C115.057 4.43766 115.739 4.28804 116.508 4.28804C117.288 4.28804 117.974 4.43387 118.565 4.72554C119.156 5.01721 119.614 5.41683 119.94 5.92441C120.269 6.43198 120.434 7.01153 120.434 7.66304C120.434 8.09865 120.351 8.52668 120.184 8.94713C120.017 9.36759 119.724 9.8335 119.303 10.3449C118.887 10.8562 118.302 11.4755 117.548 12.2028L115.542 14.2426V14.3221H120.61V16.0835H112.633ZM122.571 16.0835V14.5608L126.61 10.6005C126.997 10.2104 127.319 9.8638 127.576 9.56077C127.834 9.25774 128.027 8.96418 128.156 8.68009C128.285 8.396 128.349 8.09297 128.349 7.771C128.349 7.40357 128.266 7.08918 128.099 6.82781C127.932 6.56266 127.703 6.35812 127.411 6.21418C127.12 6.07024 126.788 5.99827 126.417 5.99827C126.035 5.99827 125.699 6.07781 125.411 6.23691C125.124 6.39221 124.9 6.6138 124.741 6.90168C124.586 7.18956 124.508 7.53236 124.508 7.93009H122.502C122.502 7.19145 122.671 6.5494 123.008 6.00395C123.345 5.4585 123.809 5.03615 124.4 4.73691C124.995 4.43766 125.677 4.28804 126.446 4.28804C127.226 4.28804 127.911 4.43387 128.502 4.72554C129.093 5.01721 129.552 5.41683 129.877 5.92441C130.207 6.43198 130.372 7.01153 130.372 7.66304C130.372 8.09865 130.288 8.52668 130.122 8.94713C129.955 9.36759 129.661 9.8335 129.241 10.3449C128.824 10.8562 128.239 11.4755 127.485 12.2028L125.48 14.2426V14.3221H130.548V16.0835H122.571Z" fill="#2C2C2C"/>
</svg>
