<svg width="21" height="21" viewBox="0 0 21 21" fill="none" xmlns="http://www.w3.org/2000/svg">
<path fill-rule="evenodd" clip-rule="evenodd" d="M17.441 15.936C18.8313 14.2936 19.6697 12.1689 19.6697 9.84848C19.6697 4.64194 15.449 0.421204 10.2424 0.421204C5.03589 0.421204 0.815155 4.64194 0.815155 9.84848C0.815155 15.055 5.03589 19.2757 10.2424 19.2757C12.5629 19.2757 14.6875 18.4374 16.33 17.047L19.1142 19.8313C19.421 20.1381 19.9184 20.1381 20.2252 19.8313C20.532 19.5245 20.532 19.027 20.2252 18.7202L17.441 15.936ZM18.0985 9.84848C18.0985 14.1873 14.5812 17.7045 10.2424 17.7045C5.90365 17.7045 2.38637 14.1873 2.38637 9.84848C2.38637 5.50969 5.90365 1.99242 10.2424 1.99242C14.5812 1.99242 18.0985 5.50969 18.0985 9.84848Z" fill="black"/>
</svg>
